# File created by Blade
# Date/Time:  Fri Jan 16 17:25:22 2015
# Frame Rate: 120.000 fps
#------------------------------------------------------
:FULLY-SPECIFIED
:DEGREES
1336
root -5.794741 35.200532 -9.541752 0.188580 -6.588247 -5.883500
Spine -2.289449 -0.036978 10.429469
Head 1.229299 8.342218 -8.204238
LeftShoulder -27.302960 14.701848 5.053143
LeftArm 26.994777 -58.603067 -34.227538
LeftForeArm 23.758241 -0.000000 5.719562
LeftHand -7.187798 -0.000000 1.738080
LeftHandThumb1 -26.253704 0.000000 33.147579
RightShoulder -10.828969 15.716379 -25.243979
RightArm -7.229626 20.885553 14.761104
RightForeArm -38.494358 -0.000000 16.763777
RightHand -8.219784 -0.000000 6.051669
RightHandThumb1 -24.326973 -0.000000 -32.862282
LeftUpLeg 10.921027 14.916772 7.302468
LeftLeg -9.229867 -0.000000 0.000000
LeftFoot -16.127343 28.817096 -9.173144
LeftToeBase 22.517759 -0.000000 -0.000000
RightUpLeg 7.201997 -4.911217 2.729454
RightLeg -4.330344 -0.000000 0.000000
RightFoot -5.603147 -24.374291 6.534782
RightToeBase 13.580028 -0.000000 -0.000000
1337
root -5.792599 35.200748 -9.535268 0.124370 -6.541947 -5.867722
Spine -2.223165 -0.086912 10.426297
Head 1.225565 8.368487 -8.202258
LeftShoulder -27.319315 14.669719 5.085661
LeftArm 27.223102 -58.600717 -34.580177
LeftForeArm 23.761889 -0.000000 5.577270
LeftHand -7.252828 -0.000000 1.723434
LeftHandThumb1 -26.253704 0.000000 33.147579
RightShoulder -10.840769 15.787240 -25.297662
RightArm -7.235026 21.041741 14.858222
RightForeArm -38.484268 -0.000000 16.663569
RightHand -8.255755 -0.000000 6.286511
RightHandThumb1 -24.326973 -0.000000 -32.862282
LeftUpLeg 10.974723 14.899830 7.299527
LeftLeg -9.216585 -0.000000 0.000000
LeftFoot -16.131535 28.802610 -9.182575
LeftToeBase 22.491998 -0.000000 -0.000000
RightUpLeg 7.266393 -4.978695 2.706244
RightLeg -4.309361 -0.000000 0.000000
RightFoot -5.620642 -24.387886 6.506720
RightToeBase 13.619749 -0.000000 -0.000000
1338
root -5.790011 35.201299 -9.530219 0.074388 -6.497371 -5.852760
Spine -2.175923 -0.148913 10.424797
Head 1.237042 8.415590 -8.198016
LeftShoulder -27.351362 14.645147 5.082262
LeftArm 27.449900 -58.572864 -34.846112
LeftForeArm 23.717734 -0.000000 5.346183
LeftHand -7.136894 -0.000000 1.677420
LeftHandThumb1 -26.253704 0.000000 33.147579
RightShoulder -10.828646 15.799688 -25.324280
RightArm -7.223557 21.207782 14.950385
RightForeArm -38.300241 -0.000000 16.588964
RightHand -8.377116 -0.000000 6.618076
RightHandThumb1 -24.326973 -0.000000 -32.862282
LeftUpLeg 11.013280 14.850845 7.289375
LeftLeg -9.201243 -0.000000 0.000000
LeftFoot -16.139683 28.805883 -9.220310
LeftToeBase 22.452412 -0.000000 -0.000000
RightUpLeg 7.315639 -5.010235 2.683882
RightLeg -4.289216 -0.000000 0.000000
RightFoot -5.632691 -24.392224 6.535595
RightToeBase 13.549225 -0.000000 -0.000000
1339
root -5.788641 35.201535 -9.525380 0.017683 -6.447615 -5.838908
Spine -2.121329 -0.202675 10.408434
Head 1.258952 8.423707 -8.173722
LeftShoulder -27.359367 14.608424 5.115633
LeftArm 27.610574 -58.494573 -35.050220
LeftForeArm 23.680267 -0.000000 5.130542
LeftHand -7.279439 0.000000 1.509338
LeftHandThumb1 -26.253704 0.000000 33.147579
RightShoulder -10.808547 15.857070 -25.355938
RightArm -7.265827 21.287635 15.035863
RightForeArm -38.351183 -0.000000 16.512584
RightHand -8.404705 0.000000 6.619203
RightHandThumb1 -24.326973 -0.000000 -32.862282
LeftUpLeg 11.063034 14.784121 7.283735
LeftLeg -9.197183 -0.000000 0.000000
LeftFoot -16.148704 28.806632 -9.254165
LeftToeBase 22.459586 -0.000000 -0.000000
RightUpLeg 7.368338 -5.057276 2.663457
RightLeg -4.260034 -0.000000 0.000000
RightFoot -5.656626 -24.420691 6.483113
RightToeBase 13.631215 -0.000000 -0.000000
